<?xml version="1.0" encoding="UTF-8"?>
<svg version="1.1" xmlns="http://www.w3.org/2000/svg" width="441" height="437">
<path d="M0 0 C145.53 0 291.06 0 441 0 C441 144.21 441 288.42 441 437 C295.47 437 149.94 437 0 437 C0 292.79 0 148.58 0 0 Z " fill="#000000" transform="translate(0,0)"/>
<path d="M0 0 C1.10463232 0.94035243 2.20833052 1.88180224 3.31164551 2.82369995 C3.92636971 3.34784925 4.5410939 3.87199856 5.17444611 4.41203117 C9.57673281 8.24138624 13.68998184 12.38552264 17.83691406 16.48681641 C18.95471045 17.58787538 20.07786702 18.68351658 21.20605469 19.77392578 C22.84743784 21.36084873 24.47203026 22.9633305 26.09375 24.5703125 C26.60192261 25.05581573 27.11009521 25.54131897 27.63366699 26.04153442 C29.02148438 27.43798828 29.02148438 27.43798828 31 30 C30.92175762 33.2448854 29.99875724 34.00134632 27.75 36.4375 C26.38875 37.7059375 26.38875 37.7059375 25 39 C24.13375 39.9075 23.2675 40.815 22.375 41.75 C20 44 20 44 17 45 C15.79117904 47.00016466 15.79117904 47.00016466 15 49 C14.34 49 13.68 49 13 49 C12.731875 49.639375 12.46375 50.27875 12.1875 50.9375 C11 53 11 53 8 54 C7.71125 54.5775 7.4225 55.155 7.125 55.75 C5.60616932 58.78766137 3.45156267 60.6624635 1 63 C-0.3303125 64.3921875 -0.3303125 64.3921875 -1.6875 65.8125 C-4 68 -4 68 -6 68 C-6.226875 68.556875 -6.45375 69.11375 -6.6875 69.6875 C-8.37550036 72.66159588 -10.46676517 74.72008865 -13 77 C-13.66 77 -14.32 77 -15 77 C-15.226875 77.55171875 -15.45375 78.1034375 -15.6875 78.671875 C-17.38725926 81.68692417 -19.54804816 83.81230369 -22 86.25 C-23.3303125 87.58804688 -23.3303125 87.58804688 -24.6875 88.953125 C-27 91 -27 91 -29 91 C-29.4563076 93.24599298 -29.4563076 93.24599298 -29 96 C-27.25914505 98.2081719 -25.58918033 100.04378391 -23.58398438 101.98364258 C-23.00852371 102.55983337 -22.43306305 103.13602417 -21.84016418 103.72967529 C-19.93630494 105.63005287 -18.01535367 107.51211213 -16.09375 109.39453125 C-14.76986892 110.70908636 -13.44708793 112.02475022 -12.12536621 113.34147644 C-8.64444636 116.80330994 -5.14877317 120.24986669 -1.64984131 123.69348145 C1.91823214 127.21039863 5.47218488 130.74152114 9.02734375 134.27148438 C16.00446235 141.1949863 22.99724532 148.10243548 30 155 C34.09620634 153.37641304 36.83447899 150.43319604 39.87011719 147.35693359 C40.44616196 146.78118088 41.02220673 146.20542816 41.6157074 145.61222839 C43.51421037 143.71233463 45.40553522 141.80546009 47.296875 139.8984375 C48.61351582 138.57806566 49.93059957 137.25813536 51.24810791 135.93862915 C54.71145037 132.46765724 58.16874418 128.9907207 61.62481689 125.51251221 C65.1537998 121.96305615 68.6884642 118.41926799 72.22265625 114.875 C79.15401308 107.92220537 86.07899377 100.96309691 93 94 C95.95912458 95.33215379 98.03117303 96.78551701 100.31225586 99.08520508 C100.93647934 99.70957962 101.56070282 100.33395416 102.20384216 100.97724915 C102.86747269 101.65120224 103.53110321 102.32515533 104.21484375 103.01953125 C104.90759903 103.71511642 105.60035431 104.4107016 106.31410217 105.12736511 C108.5266454 107.35108759 110.73214558 109.58165015 112.9375 111.8125 C114.41815752 113.30319368 115.89927236 114.79343326 117.38085938 116.28320312 C120.70635566 119.62858188 124.02680542 122.97889743 127.34469604 126.33181763 C128.84385001 127.84263515 130.34929658 129.34678246 131.85766602 130.84838867 C133.67464476 132.67323581 135.35670238 134.52057333 137 136.5 C140.69657182 140.85332316 144.66272756 144.72563951 149 148.4375 C152.42273291 151.397875 155.16778289 154.47886522 158 158 C159.6459651 159.68711423 161.31237149 161.3545622 163 163 C163.78375 163.804375 164.5675 164.60875 165.375 165.4375 C167.33368966 167.34955419 169.27249391 169.07605524 171.375 170.8125 C174.7074613 173.61840356 177.43697821 176.74715289 180.25 180.0625 C182.37797502 182.41847235 184.71887287 184.3586499 187.16723633 186.36889648 C188.98776879 187.9891146 190.50659942 189.67139025 192.07421875 191.53515625 C196.57675981 196.74617662 201.43428996 201.58057669 206.3125 206.4375 C207.21806641 207.34693359 208.12363281 208.25636719 209.05664062 209.19335938 C209.92095703 210.05638672 210.78527344 210.91941406 211.67578125 211.80859375 C212.45864502 212.59032959 213.24150879 213.37206543 214.0480957 214.17749023 C215.87430532 216.05529367 215.87430532 216.05529367 218 217 C217.42214146 220.63167692 216.05312904 222.32194392 213.47265625 224.890625 C212.76302734 225.59960938 212.05339844 226.30859375 211.32226562 227.0390625 C210.57654297 227.76867187 209.83082031 228.49828125 209.0625 229.25 C208.32064453 229.99507812 207.57878906 230.74015625 206.81445312 231.5078125 C201.26694139 237 201.26694139 237 199 237 C198.59700526 237.89055399 198.59700526 237.89055399 198.18586922 238.79909897 C196.99349287 241.01207683 195.79900276 242.44768366 194.02609253 244.2144165 C193.1132399 245.13139313 193.1132399 245.13139313 192.1819458 246.06689453 C191.51588318 246.7257666 190.84982056 247.38463867 190.16357422 248.06347656 C189.46102509 248.76631775 188.75847595 249.46915894 188.03463745 250.19329834 C185.71269689 252.51384625 183.38375372 254.8272308 181.0546875 257.140625 C179.44285268 258.74872947 177.83145903 260.35727625 176.2204895 261.96624756 C171.98012971 266.19897265 167.73379794 270.42565715 163.48620605 274.65112305 C159.15255457 278.96431271 154.82456212 283.28317249 150.49609375 287.6015625 C142.00293327 296.07327591 133.50345472 304.53862033 125 313 C123.89536768 312.05964757 122.79166948 311.11819776 121.68835449 310.17630005 C121.07363029 309.65215075 120.4589061 309.12800144 119.82555389 308.58796883 C115.42326719 304.75861376 111.31001816 300.61447736 107.16308594 296.51318359 C106.04528955 295.41212462 104.92213298 294.31648342 103.79394531 293.22607422 C102.15256216 291.63915127 100.52796974 290.0366695 98.90625 288.4296875 C98.39807739 287.94418427 97.88990479 287.45868103 97.36633301 286.95846558 C95.97851562 285.56201172 95.97851562 285.56201172 94 283 C94.06144602 279.28859721 96.35870962 277.30790901 98.87974548 274.80253601 C99.42941483 274.27150772 99.97908417 273.74047943 100.54541016 273.19335938 C101.41122963 272.33892998 101.41122963 272.33892998 102.29454041 271.46723938 C103.54741389 270.23246611 104.80365958 269.00110726 106.06285477 267.77278137 C108.0531321 265.83001627 110.03304829 263.87723366 112.01034546 261.92126465 C117.6333196 256.36254737 123.27438468 250.82235269 128.92285156 245.28955078 C132.37738638 241.90435753 135.81977822 238.50719962 139.25507736 235.10249329 C140.56851448 233.80587272 141.88674563 232.51409033 143.20973587 231.22721863 C145.05565338 229.43149155 146.88589721 227.62109809 148.71337891 225.80664062 C149.26709671 225.27561234 149.82081451 224.74458405 150.39131165 224.19746399 C153.13867175 221.54050175 153.13867175 221.54050175 154.17027283 217.99822998 C152.40279853 214.98028404 150.04095865 212.65075838 147.56225586 210.22167969 C146.99640274 209.65538849 146.43054962 209.08909729 145.84754944 208.50564575 C143.97700443 206.63718936 142.09606074 204.77958101 140.21484375 202.921875 C138.91524591 201.62787283 137.6163092 200.33320636 136.31800842 199.03790283 C132.90016715 195.63151249 129.47341237 192.2342274 126.04473877 188.83874512 C122.54719606 185.37189771 119.05813702 181.89653563 115.56835938 178.421875 C108.72052726 171.60621145 101.86325073 164.80013457 95 158 C90.90379366 159.62358696 88.16552101 162.56680396 85.12988281 165.64306641 C84.55383804 166.21881912 83.97779327 166.79457184 83.3842926 167.38777161 C81.48578963 169.28766537 79.59446478 171.19453991 77.703125 173.1015625 C76.38648418 174.42193434 75.06940043 175.74186464 73.75189209 177.06137085 C70.28854963 180.53234276 66.83125582 184.0092793 63.37518311 187.48748779 C59.8462002 191.03694385 56.3115358 194.58073201 52.77734375 198.125 C45.84598692 205.07779463 38.92100623 212.03690309 32 219 C28.65474282 217.41515209 26.45699031 215.69127046 23.84765625 213.04296875 C23.07099609 212.25986328 22.29433594 211.47675781 21.49414062 210.66992188 C20.69169922 209.85072266 19.88925781 209.03152344 19.0625 208.1875 C18.26392578 207.37990234 17.46535156 206.57230469 16.64257812 205.74023438 C15.09914887 204.17890288 13.55757087 202.61573866 12.01806641 201.05053711 C8.94321907 197.92621545 5.84238199 194.82940007 2.71875 191.75390625 C-3.98946494 185.12836297 -3.98946494 185.12836297 -6.5625 181.875 C-9.15798274 178.81366139 -11.97451855 176.38121457 -15.0234375 173.7890625 C-17.43821579 171.60335408 -19.4341547 169.20073464 -21.5 166.69140625 C-23.58382246 164.34167936 -25.93270708 162.39844631 -28.34375 160.39453125 C-31.9031344 157.39759674 -34.99598863 154.03907701 -38 150.5 C-41.65854663 146.19145778 -45.57390807 142.35169947 -49.875 138.6875 C-53.36413125 135.67624226 -56.30591825 132.42307159 -59.27734375 128.91015625 C-61.45588412 126.49449584 -63.8690849 124.49761757 -66.375 122.43359375 C-68.90780013 120.19912825 -70.87713717 117.62564613 -73 115 C-74.65503242 113.32177974 -76.32390405 111.65718373 -78 110 C-79.08834112 108.90213255 -80.1755256 107.80311762 -81.26171875 106.703125 C-82.40361444 105.55205219 -83.54554195 104.40101094 -84.6875 103.25 C-85.26822266 102.66089844 -85.84894531 102.07179688 -86.44726562 101.46484375 C-89.43155316 98.35093236 -89.43155316 98.35093236 -93 96 C-92.4236056 92.31776856 -90.99994895 90.62852059 -88.3870697 88.02630615 C-87.22385445 86.85690491 -87.22385445 86.85690491 -86.03713989 85.66387939 C-85.18046722 84.81799255 -84.32379456 83.97210571 -83.44116211 83.10058594 C-82.54368759 82.20267334 -81.64621307 81.30476074 -80.72154236 80.37963867 C-78.26141059 77.91864583 -75.79213587 75.46701509 -73.32112956 73.01694775 C-70.73994509 70.45451133 -68.16724831 67.88358226 -65.59364319 65.3135376 C-60.71934372 60.44856409 -55.83744708 55.59128872 -50.95278221 50.73672509 C-45.39193798 45.2094077 -39.83960533 39.67357392 -34.28797519 34.13700438 C-22.86810162 22.7484923 -11.43757397 11.37073588 0 0 Z " fill="#F8F8F8" transform="translate(162,66)"/>
<path d="M0 0 C1.42430973 1.4454298 1.42430973 1.4454298 3.08766174 3.45854187 C7.03716693 8.09897362 11.26717249 12.37983587 15.59741211 16.66333008 C16.42748779 17.48873291 17.25756348 18.31413574 18.11279297 19.16455078 C19.90138694 20.94270309 21.69107805 22.71975238 23.48176384 24.49579811 C26.3124487 27.30436187 29.13921699 30.11682987 31.9644928 32.93083191 C39.99290695 40.92596282 48.02567731 48.91668314 56.06860352 56.8972168 C60.52356518 61.31770357 64.97318787 65.7434911 69.41689116 70.17529601 C71.76462001 72.51625041 74.11595018 74.85340087 76.47230339 77.18567848 C79.09116813 79.77822298 81.7007536 82.37977143 84.30834961 84.98364258 C85.09216507 85.75510117 85.87598053 86.52655975 86.68354797 87.32139587 C87.38863495 88.02916168 88.09372192 88.73692749 88.82017517 89.46614075 C89.43790267 90.07980405 90.05563017 90.69346735 90.69207668 91.32572651 C92 93 92 93 92 96 C90.55541992 97.52099609 90.55541992 97.52099609 88.54296875 99.1484375 C83.86969513 103.06530149 79.59693098 107.29079457 75.3125 111.625 C74.57966797 112.36234375 73.84683594 113.0996875 73.09179688 113.859375 C71.6859924 115.27405291 70.2811495 116.68968725 68.87744141 118.10644531 C66.59204691 120.41145438 64.29748355 122.70704797 62 125 C58.14669069 123.43013325 55.88525001 120.94961569 53 118 C51.6344444 116.64249602 50.26886761 115.2850131 48.90258789 113.92823792 C46.81435237 111.85355191 44.72892718 109.77604961 42.64355469 107.69848633 C41.54874637 106.60871946 40.45304396 105.51985006 39.35644531 104.43188477 C37.75604928 102.84371465 36.15899111 101.25225056 34.5625 99.66015625 C34.079021 99.18183853 33.59554199 98.70352081 33.09741211 98.21070862 C29.84350245 94.95732865 26.92346439 91.54448527 24 88 C22.71966139 86.81833874 21.40973323 85.66728635 20.0625 84.5625 C16.82068175 81.80207957 14.07444759 78.90297979 11.3671875 75.625 C9.38584538 73.27003337 7.20297578 71.14648923 5 69 C3.33333333 67.33333333 1.66666667 65.66666667 0 64 C-4.09620634 65.62358696 -6.83447899 68.56680396 -9.87011719 71.64306641 C-10.44616196 72.21881912 -11.02220673 72.79457184 -11.6157074 73.38777161 C-13.51421037 75.28766537 -15.40553522 77.19453991 -17.296875 79.1015625 C-18.61351582 80.42193434 -19.93059957 81.74186464 -21.24810791 83.06137085 C-24.71145037 86.53234276 -28.16874418 90.0092793 -31.62481689 93.48748779 C-35.1537998 97.03694385 -38.6884642 100.58073201 -42.22265625 104.125 C-49.15401308 111.07779463 -56.07899377 118.03690309 -63 125 C-67.16387911 123.08317044 -70.09756845 120.26070927 -73.33203125 117.07421875 C-73.92803635 116.4896138 -74.52404144 115.90500885 -75.1381073 115.3026886 C-76.39231101 114.06733504 -77.6436633 112.82908072 -78.89233398 111.58813477 C-80.80950309 109.69046642 -82.74692443 107.81516679 -84.68554688 105.93945312 C-85.90235325 104.73569937 -87.11789294 103.53066354 -88.33203125 102.32421875 C-88.91523636 101.76570724 -89.49844147 101.20719574 -90.09931946 100.63175964 C-91.69848633 99.0144043 -91.69848633 99.0144043 -94 96 C-93.9753418 93.17114258 -93.9753418 93.17114258 -93 91 C-91.0625 89.9375 -91.0625 89.9375 -89 89 C-88.31513275 87.67592331 -87.65129797 86.34090759 -87 85 C-84.5 82.25 -84.5 82.25 -82 80 C-81.34 80 -80.68 80 -80 80 C-79.60128693 79.11414404 -79.60128693 79.11414404 -79.19451904 78.210392 C-77.9678385 75.94048691 -76.70510105 74.4535985 -74.88769531 72.63372803 C-74.2483606 71.98875366 -73.60902588 71.3437793 -72.95031738 70.67926025 C-72.2499939 69.98298523 -71.54967041 69.28671021 -70.828125 68.56933594 C-70.08977417 67.82748047 -69.35142334 67.085625 -68.59069824 66.32128906 C-66.14880714 63.87059504 -63.69967251 61.42728909 -61.25 58.984375 C-59.55341779 57.28644602 -57.85713261 55.5882202 -56.16113281 53.88970947 C-52.60676101 50.33238859 -49.04879494 46.77871222 -45.48828125 43.22753906 C-40.91465292 38.66532238 -36.35008353 34.09416404 -31.78814697 29.52025986 C-28.28831081 26.01321413 -24.78374667 22.51092443 -21.27770996 19.01007843 C-19.59205091 17.32575748 -17.9078871 15.63993878 -16.22521973 13.95262909 C-13.87889659 11.60125374 -11.52630475 9.25634021 -9.171875 6.91308594 C-8.47155151 6.20871399 -7.77122803 5.50434204 -7.04968262 4.77862549 C-6.4103479 4.14493042 -5.77101318 3.51123535 -5.11230469 2.8583374 C-4.55629578 2.30308254 -4.00028687 1.74782768 -3.4274292 1.17574692 C-2 0 -2 0 0 0 Z " fill="#F8F8F8" transform="translate(257,66)"/>
<path d="M0 0 C0.66 0 1.32 0 2 0 C3.32226562 1.35449219 3.32226562 1.35449219 4.90625 3.296875 C7.94337399 6.87274194 11.15954649 10.1955589 14.53125 13.453125 C15.01577637 13.92488159 15.50030273 14.39663818 15.99951172 14.88269043 C18.01257297 16.84229732 20.02750498 18.79938523 22.06054688 20.73828125 C23.5621826 22.1736405 25.04765828 23.62415459 26.53125 25.078125 C27.41361328 25.92793945 28.29597656 26.77775391 29.20507812 27.65332031 C31 30 31 30 30.76470566 31.97159672 C29.49076942 35.35074843 26.8060949 37.58253071 24.27441406 40.06616211 C23.37916016 40.96207314 23.37916016 40.96207314 22.46582031 41.87608337 C20.48944923 43.85036346 18.50265618 45.81379774 16.515625 47.77734375 C15.13832295 49.14904752 13.76168404 50.52141743 12.38568115 51.89442444 C8.75767924 55.51096742 5.12076763 59.11842051 1.48193359 62.72406006 C-2.20750317 66.3829264 -5.88858075 70.05018032 -9.5703125 73.71679688 C-15.52602813 79.6461448 -21.4868093 85.57034187 -27.45440674 91.48773193 C-28.4903639 92.51516828 -29.52588996 93.54303954 -30.56090546 94.57142448 C-31.94954806 95.94991683 -33.34168375 97.32488762 -34.73394775 98.69972229 C-37.112238 101.05023211 -37.112238 101.05023211 -39.5 104 C-42.9985781 108.19829372 -46.7889872 111.833779 -50.9375 115.375 C-54.26432541 118.23644719 -57.06263715 121.2695528 -59.7734375 124.71484375 C-60.17820312 125.13894531 -60.58296875 125.56304687 -61 126 C-61.66 126 -62.32 126 -63 126 C-64.42375183 124.5540123 -64.42375183 124.5540123 -66.08666992 122.54046631 C-70.03696229 117.8991702 -74.27353554 113.6278512 -78.61328125 109.35253906 C-79.44496323 108.52874252 -80.2766452 107.70494598 -81.13352966 106.85618591 C-82.92545427 105.08136083 -84.7184198 103.30758618 -86.5123291 101.53476715 C-89.34765838 98.73085621 -92.17826499 95.92223548 -95.00683594 93.11151123 C-95.97872875 92.14587734 -96.95062206 91.18024395 -97.92251587 90.21461105 C-98.40866993 89.73157312 -98.89482399 89.24853518 -99.39570999 88.75085974 C-105.97071259 82.21876973 -112.55036062 75.69145987 -119.14404297 69.17822266 C-123.60895385 64.76768952 -128.06499627 60.34840715 -132.51097965 55.91879249 C-134.86008068 53.57907392 -137.21490366 51.24561237 -139.57803345 48.92005157 C-142.20418391 46.33464611 -144.814631 43.73433304 -147.421875 41.12988281 C-148.20928574 40.3620195 -148.99669647 39.59415619 -149.80796814 38.80302429 C-150.51168045 38.09388382 -151.21539276 37.38474335 -151.94042969 36.65411377 C-152.55907898 36.04137226 -153.17772827 35.42863075 -153.81512451 34.79732132 C-155 33 -155 33 -154.76349354 30.86853886 C-153.90587555 28.76964416 -152.96618005 27.5739057 -151.37963867 25.9597168 C-150.83204391 25.39621017 -150.28444916 24.83270355 -149.72026062 24.25212097 C-149.1255043 23.65716324 -148.53074799 23.06220551 -147.91796875 22.44921875 C-147.30738113 21.83101761 -146.69679352 21.21281647 -146.06770325 20.57588196 C-144.77614917 19.27353377 -143.48060773 17.9751295 -142.18139648 16.68041992 C-140.19120504 14.69120323 -138.22329947 12.68161278 -136.25585938 10.66992188 C-134.99869827 9.40755576 -133.74027641 8.14644368 -132.48046875 6.88671875 C-131.89178513 6.28163986 -131.3031015 5.67656097 -130.69657898 5.05314636 C-126.57240012 0.99786101 -126.57240012 0.99786101 -124.17884827 1.00680542 C-120.89563583 2.50340748 -118.62870818 4.9634294 -116.12988281 7.49780273 C-115.55383804 8.07019684 -114.97779327 8.64259094 -114.3842926 9.23233032 C-112.4830938 11.12542579 -110.5929624 13.02916142 -108.703125 14.93359375 C-107.3865584 16.25067888 -106.06947364 17.56724624 -104.75189209 18.88331604 C-101.99341601 21.64188183 -99.2401825 24.405544 -96.49072266 27.1730957 C-92.9592923 30.72724638 -89.41686065 34.27018275 -85.87068558 37.80961514 C-83.1509201 40.52604631 -80.43615309 43.24742702 -77.72298431 45.97044563 C-76.41811749 47.27917154 -75.11188752 48.58653973 -73.8042984 49.8925457 C-71.98205789 51.71441708 -70.16642829 53.54262162 -68.35253906 55.37280273 C-67.80712967 55.91573471 -67.26172028 56.45866669 -66.69978333 57.01805115 C-63 60.77125752 -63 60.77125752 -63 63 C-59.06559934 59.71467559 -55.25977949 56.47116783 -52 52.5 C-49.25877134 49.1612283 -46.16235519 46.47677107 -42.875 43.6875 C-40.29265636 41.36339073 -38.21604854 38.6706226 -36 36 C-34.26776272 34.42450809 -32.48554912 32.92544722 -30.6875 31.42578125 C-26.97048966 28.28525168 -23.77662212 24.75339968 -20.625 21.0625 C-17.81141924 17.80046642 -14.83148785 15.04490951 -11.50390625 12.3203125 C-9.70661842 10.74243384 -8.4063087 8.92442244 -7 7 C-6.34 7 -5.68 7 -5 7 C-4.34 5.68 -3.68 4.36 -3 3 C-2.34 3 -1.68 3 -1 3 C-0.67 2.01 -0.34 1.02 0 0 Z " fill="#F8F8F8" transform="translate(255,253)"/>
<path d="M0 0 C145.53 0 291.06 0 441 0 C441 0.33 441 0.66 441 1 C296.46 1 151.92 1 3 1 C3 144.88 3 288.76 3 437 C2.01 437 1.02 437 0 437 C0 292.79 0 148.58 0 0 Z " fill="#272727" transform="translate(0,0)"/>
<path d="M0 0 C1.32 1.32 2.64 2.64 4 4 C3.2740564 4.07530945 2.54811279 4.1506189 1.8001709 4.22821045 C-1.75117187 5.20703972 -3.21895584 6.73647738 -5.80273438 9.34863281 C-6.7271936 10.27339417 -7.65165283 11.19815552 -8.60412598 12.15093994 C-9.6008763 13.16813022 -10.59741238 14.18553048 -11.59375 15.203125 C-12.62749843 16.24434252 -13.66214007 17.28467393 -14.69763184 18.32415771 C-17.42046096 21.06224095 -20.13107938 23.81210765 -22.83929443 26.56463623 C-25.58489365 29.35100218 -28.34169016 32.12623786 -31.09765625 34.90234375 C-35.95682135 39.79975524 -40.80599161 44.70684306 -45.64807129 49.62115479 C-48.0892901 52.09031198 -50.54378039 54.54577265 -53 57 C-54.3116541 58.32051371 -55.62246791 59.64186269 -56.93237305 60.96411133 C-60.97529602 65.04259416 -65.02428841 69.11499369 -69.07543945 73.18530273 C-70.82395991 74.94395575 -72.570692 76.70438855 -74.31567383 78.46655273 C-76.83470969 81.00971231 -79.3600302 83.54647763 -81.88671875 86.08203125 C-82.67004074 86.87567581 -83.45336273 87.66932037 -84.26042175 88.48701477 C-84.98490005 89.21164413 -85.70937836 89.9362735 -86.45581055 90.68286133 C-87.09358932 91.32508133 -87.7313681 91.96730133 -88.38847351 92.62898254 C-90 94 -90 94 -92 94 C-92.495 94.99 -92.495 94.99 -93 96 C-92.4236056 92.31776856 -90.99994895 90.62852059 -88.3870697 88.02630615 C-87.22385445 86.85690491 -87.22385445 86.85690491 -86.03713989 85.66387939 C-85.18046722 84.81799255 -84.32379456 83.97210571 -83.44116211 83.10058594 C-82.54368759 82.20267334 -81.64621307 81.30476074 -80.72154236 80.37963867 C-78.26141059 77.91864583 -75.79213587 75.46701509 -73.32112956 73.01694775 C-70.73994509 70.45451133 -68.16724831 67.88358226 -65.59364319 65.3135376 C-60.71934372 60.44856409 -55.83744708 55.59128872 -50.95278221 50.73672509 C-45.39193798 45.2094077 -39.83960533 39.67357392 -34.28797519 34.13700438 C-22.86810162 22.7484923 -11.43757397 11.37073588 0 0 Z " fill="#D8D8D8" transform="translate(162,66)"/>
<path d="M0 0 C0.495 0.99 0.495 0.99 1 2 C-4.8432199 8.96537451 -11.22630207 15.35581129 -17.6640625 21.76171875 C-18.78573264 22.88151862 -19.90717837 24.00154332 -21.02841187 25.1217804 C-23.96034814 28.04992773 -26.89527282 30.97506124 -29.83087158 33.89953613 C-32.81354326 36.87195948 -35.79337498 39.84722683 -38.7734375 42.82226562 C-44.01660178 48.05590221 -49.26222265 53.2870652 -54.50967407 58.5164032 C-55.33148163 59.33599014 -56.15328918 60.15557709 -57 61 C-57.87868744 61.87618484 -58.75737488 62.75236969 -59.66268921 63.65510559 C-61.30313155 65.3008705 -62.92586671 66.96438505 -64.53515625 68.640625 C-65.36917969 69.50171875 -66.20320312 70.3628125 -67.0625 71.25 C-67.89910156 72.12140625 -68.73570312 72.9928125 -69.59765625 73.890625 C-71.88375788 75.89793375 -73.03623995 76.644075 -76 77 C-74.625 75 -74.625 75 -73 73 C-72.34 73 -71.68 73 -71 73 C-70.773125 72.443125 -70.54625 71.88625 -70.3125 71.3125 C-68.62449964 68.33840412 -66.53323483 66.27991135 -64 64 C-63.34 64 -62.68 64 -62 64 C-61.78828156 63.46296448 -61.57656311 62.92592896 -61.35842896 62.37261963 C-59.48799765 59.10574136 -56.92302024 56.66146279 -54.26513672 54.03808594 C-53.38687729 53.15938843 -53.38687729 53.15938843 -52.49087524 52.26293945 C-50.55851644 50.33197161 -48.61917484 48.40818053 -46.6796875 46.484375 C-45.33689544 45.14531389 -43.99454487 43.80580991 -42.65261841 42.46588135 C-39.12246283 38.94335571 -35.58634194 35.42687797 -32.0489502 31.91162109 C-28.43917149 28.32231449 -24.83505985 24.72732744 -21.23046875 21.1328125 C-14.15918442 14.08296682 -7.08158587 7.03949663 0 0 Z " fill="#C3C3C3" transform="translate(239,82)"/>
<path d="M0 0 C0.66 0 1.32 0 2 0 C0.6489735 3.01015294 -0.86335687 5.11967466 -3.1875 7.453125 C-3.80367187 8.071875 -4.41984375 8.690625 -5.0546875 9.328125 C-5.69664062 9.96234375 -6.33859375 10.5965625 -7 11.25 C-7.64195312 11.8996875 -8.28390625 12.549375 -8.9453125 13.21875 C-9.56148437 13.83234375 -10.17765625 14.4459375 -10.8125 15.078125 C-11.37582031 15.63918945 -11.93914062 16.20025391 -12.51953125 16.77832031 C-14 18 -14 18 -16 18 C-16.27295898 18.59762146 -16.54591797 19.19524292 -16.82714844 19.81097412 C-17.96699868 21.9384059 -19.07214943 23.32540472 -20.765625 25.02441406 C-21.31959961 25.58469299 -21.87357422 26.14497192 -22.44433594 26.722229 C-23.04020508 27.31404968 -23.63607422 27.90587036 -24.25 28.515625 C-25.17087402 29.4393692 -25.17087402 29.4393692 -26.11035156 30.3817749 C-27.40574483 31.67852646 -28.70365644 32.97276657 -30.00390625 34.26464844 C-31.99975068 36.24975202 -33.98466726 38.24533591 -35.96875 40.2421875 C-37.22852555 41.50064211 -38.48892101 42.75847654 -39.75 44.015625 C-40.34586914 44.6155426 -40.94173828 45.21546021 -41.55566406 45.83355713 C-45.77006753 50 -45.77006753 50 -48 50 C-48.25523437 50.58265625 -48.51046875 51.1653125 -48.7734375 51.765625 C-50.11741087 54.21388223 -51.61810296 55.81743248 -53.625 57.75 C-54.57246094 58.67039062 -54.57246094 58.67039062 -55.5390625 59.609375 C-56.26222656 60.29773438 -56.26222656 60.29773438 -57 61 C-57.66 60.67 -58.32 60.34 -59 60 C-58.49210938 59.50371094 -57.98421875 59.00742187 -57.4609375 58.49609375 C-54.16692501 55.2452612 -50.94196812 52.01337285 -48 48.4375 C-45.2520989 45.14301367 -42.14555924 42.46412068 -38.8828125 39.69140625 C-36.26539466 37.34007446 -34.20486761 34.74118676 -32 32 C-29.16568746 29.01248138 -26.19057629 26.29516398 -23.0625 23.625 C-19.84377619 20.84189294 -17.08628367 17.91184769 -14.375 14.640625 C-9.12334802 8.37444934 -9.12334802 8.37444934 -5 7 C-3.79117904 4.99983534 -3.79117904 4.99983534 -3 3 C-2.34 3 -1.68 3 -1 3 C-0.67 2.01 -0.34 1.02 0 0 Z " fill="#D6D6D6" transform="translate(255,253)"/>
<path d="M0 0 C1.866745 0.78031921 1.866745 0.78031921 2.866745 2.78031921 C1.81813293 2.85210388 1.81813293 2.85210388 0.74833679 2.92533875 C-3.20311539 4.09775131 -5.44561493 6.57577125 -8.23872375 9.46000671 C-8.80400284 10.02857391 -9.36928192 10.59714111 -9.95169067 11.18293762 C-11.14213937 12.38378797 -12.32781787 13.58938362 -13.50898743 14.79936218 C-15.31608125 16.65053146 -17.13620149 18.48801753 -18.95942688 20.32328796 C-20.11580507 21.49309111 -21.2714301 22.66363935 -22.42622375 23.83500671 C-22.96893417 24.38510406 -23.51164459 24.93520142 -24.07080078 25.50196838 C-26.35080858 27.84001175 -28.31575517 30.05406947 -30.133255 32.78031921 C-30.78857422 30.97607422 -30.78857422 30.97607422 -31.133255 28.78031921 C-29.17700787 26.31478286 -27.25866748 24.20565516 -25.02778625 22.01078796 C-24.3921727 21.37039078 -23.75655914 20.72999359 -23.10168457 20.07019043 C-21.75336463 18.7184653 -20.39869901 17.37304495 -19.0382843 16.03349304 C-16.95380436 13.97576526 -14.89729769 11.89277456 -12.84223938 9.80570984 C-11.53068855 8.49746299 -10.21758757 7.19076799 -8.90278625 5.88578796 C-8.28595474 5.2588353 -7.66912323 4.63188263 -7.03359985 3.9859314 C-2.65592462 -0.27350486 -2.65592462 -0.27350486 0 0 Z " fill="#CDCDCD" transform="translate(131.1332550048828,254.2196807861328)"/>
<path d="M0 0 C-1.51374725 3.57276904 -3.61894388 5.85680371 -6.375 8.5625 C-7.14585937 9.32691406 -7.91671875 10.09132813 -8.7109375 10.87890625 C-10.72713289 12.74715556 -12.76606163 14.40360112 -15 16 C-15.66 15.67 -16.32 15.34 -17 15 C-14.54976242 12.49195282 -12.08852402 9.9949924 -9.625 7.5 C-8.57699219 6.42685547 -8.57699219 6.42685547 -7.5078125 5.33203125 C-6.8375 4.65527344 -6.1671875 3.97851562 -5.4765625 3.28125 C-4.85861816 2.65283203 -4.24067383 2.02441406 -3.60400391 1.37695312 C-2 0 -2 0 0 0 Z " fill="#C6C6C6" transform="translate(257,66)"/>
<path d="M0 0 C0.66 0 1.32 0 2 0 C0.60249952 3.15835107 -1.05198234 5.32272825 -3.5 7.75 C-4.41265625 8.67039062 -4.41265625 8.67039062 -5.34375 9.609375 C-7 11 -7 11 -9 11 C-8.34 9.68 -7.68 8.36 -7 7 C-6.34 7 -5.68 7 -5 7 C-4.34 5.68 -3.68 4.36 -3 3 C-2.34 3 -1.68 3 -1 3 C-0.67 2.01 -0.34 1.02 0 0 Z " fill="#BDBDBD" transform="translate(255,253)"/>
</svg>
